<svg xmlns="http://www.w3.org/2000/svg" width="37.905" height="23.75" viewBox="0 0 37.905 23.75">
    <defs>
        <style>
            .prefix__cls-1{fill:#fa7368}
        </style>
    </defs>
    <g id="prefix__XMLID_97_" transform="translate(-49.9 -203)">
        <path id="prefix__XMLID_102_" d="M60.888 203a14.187 14.187 0 0 1 3.044.294 6.544 6.544 0 0 1 2.354.965 4.457 4.457 0 0 1 1.517 1.775 6.249 6.249 0 0 1 .533 2.74 5.131 5.131 0 0 1-.8 2.942 5.752 5.752 0 0 1-2.381 1.922 5.56 5.56 0 0 1 3.2 2.17 7.167 7.167 0 0 1 .377 6.8 5.963 5.963 0 0 1-1.848 2.115 8.314 8.314 0 0 1-2.648 1.214 12.014 12.014 0 0 1-3.044.4H49.9V203zm-.662 9.416a3.7 3.7 0 0 0 2.262-.653 2.455 2.455 0 0 0 .874-2.124 2.767 2.767 0 0 0-.285-1.342 2.157 2.157 0 0 0-.791-.809 3.312 3.312 0 0 0-1.131-.414 6.886 6.886 0 0 0-1.324-.12h-4.8v5.453h5.2zm.285 9.93a6.685 6.685 0 0 0 1.444-.147 3.413 3.413 0 0 0 1.214-.5 2.561 2.561 0 0 0 .837-.929 3.194 3.194 0 0 0 .3-1.508 3.055 3.055 0 0 0-1.011-2.575 4.3 4.3 0 0 0-2.676-.763H55.04v6.418z" class="prefix__cls-1"/>
        <path id="prefix__XMLID_99_" d="M284.5 281.014a4.715 4.715 0 0 0 5.416.313 2.971 2.971 0 0 0 1.241-1.5h4.083a7.765 7.765 0 0 1-3.007 4.358 8.792 8.792 0 0 1-4.892 1.315 9.57 9.57 0 0 1-3.6-.644 7.68 7.68 0 0 1-2.722-1.811 8.284 8.284 0 0 1-1.71-2.814 10.243 10.243 0 0 1-.607-3.6 9.866 9.866 0 0 1 .625-3.531 8.346 8.346 0 0 1 1.765-2.832 8.236 8.236 0 0 1 2.74-1.885 8.721 8.721 0 0 1 3.522-.69 8 8 0 0 1 3.752.837 7.473 7.473 0 0 1 2.63 2.234 9.119 9.119 0 0 1 1.48 3.2 11.823 11.823 0 0 1 .322 3.761h-12.185a4.708 4.708 0 0 0 1.147 3.289zm5.324-8.864a3.472 3.472 0 0 0-2.621-.938 4.081 4.081 0 0 0-1.848.377 3.742 3.742 0 0 0-1.177.929 3.363 3.363 0 0 0-.625 1.186 5.089 5.089 0 0 0-.211 1.113h7.549a4.414 4.414 0 0 0-1.065-2.667z" class="prefix__cls-1" transform="translate(-207.762 -58.751)"/>
        <path id="prefix__XMLID_98_" d="M0 0H9.452V2.299H0z" class="prefix__cls-1" transform="translate(74.643 204.563)"/>
    </g>
</svg>
