<svg xmlns="http://www.w3.org/2000/svg" width="31" height="31" viewBox="0 0 31 31">
    <path id="prefix__iconfinder_02-dribbble_104497" d="M33.189 16.389a15 15 0 1 0-25.3 13.627 15.154 15.154 0 0 0 2.219 1.83 14.995 14.995 0 0 0 19-1.83 15.226 15.226 0 0 0 1.823-2.216 15.049 15.049 0 0 0 2.258-11.409zM31.3 19.281a29.659 29.659 0 0 0-8.922-.42q-.135-.329-.276-.661c-.266-.627-.553-1.248-.852-1.858 5.06-2.064 7.114-5.034 7.137-5.07a12.745 12.745 0 0 1 2.913 8.009zm-4.345-9.486c-.032.05-1.856 2.826-6.691 4.639a65.073 65.073 0 0 0-4.788-7.473 12.794 12.794 0 0 1 11.48 2.834zm-11.53-2.824l-.038.008c.013-.001.025-.003.038-.008zm-2.4.852a77.01 77.01 0 0 1 4.76 7.377 47.388 47.388 0 0 1-11.828 1.568 12.829 12.829 0 0 1 7.07-8.945zM5.683 19.408c0-.137.006-.27.011-.4a46.974 46.974 0 0 0 13.152-1.825c.367.718.718 1.448 1.039 2.178-.169.047-.338.1-.5.153a20.267 20.267 0 0 0-10.425 8.45v.006a12.768 12.768 0 0 1-3.277-8.562zm12.811 12.811a12.756 12.756 0 0 1-8.16-2.936c.168.137.287.224.287.224s2.456-5.355 10.053-8c.029-.011.057-.019.086-.027a53.3 53.3 0 0 1 2.74 9.72 12.746 12.746 0 0 1-5.006 1.019zm7.159-2.185a55.4 55.4 0 0 0-2.493-9.15 18.564 18.564 0 0 1 7.983.559 12.819 12.819 0 0 1-5.491 8.591z" transform="translate(-2.993 -3.909)" style="fill:#fa7368;stroke:#fa7368;fill-rule:evenodd"/>
</svg>
