<svg xmlns="http://www.w3.org/2000/svg" width="31.544" height="31.432" viewBox="0 0 31.544 31.432">
    <defs>
        <style>
            .prefix__cls-1{fill:#fa7368}
        </style>
    </defs>
    <g id="prefix__iconfinder_social-linkedin_216394" transform="translate(-4.95 -5)">
        <g id="prefix__Group_2" data-name="Group 2" transform="translate(5.062 13.98)">
            <path id="prefix__Path_2" d="M11.735 31.451H5V9h6.735zm24.7 0H29.7V19.458c0-3.125-1.114-4.681-3.321-4.681a3.318 3.318 0 0 0-3.415 2.616v14.058h-6.738s.09-20.206 0-22.451h5.316l.411 4.49h.139a7.5 7.5 0 0 1 6.614-3.767 6.972 6.972 0 0 1 5.584 2.247c1.43 1.61 2.142 3.77 2.142 6.8z" class="prefix__cls-1" data-name="Path 2" transform="translate(-5 -9)"/>
        </g>
        <g id="prefix__Group_3" data-name="Group 3" transform="translate(4.95 5)">
            <ellipse id="prefix__Ellipse_1" cx="3.48" cy="3.368" class="prefix__cls-1" data-name="Ellipse 1" rx="3.48" ry="3.368"/>
        </g>
    </g>
</svg>
