<svg xmlns="http://www.w3.org/2000/svg" width="1388" height="368.5" viewBox="0 0 1388 368.5">
  <path id="Path_1" data-name="Path 1" d="M35.5-309.5l-20-4.5q-10-2.5-14.25-7.25T-3-334.5q0-9,4.25-13.75T15.5-356a220.157,220.157,0,0,1,22.75-4.75A162.7,162.7,0,0,1,64.5-363q22.5,0,30.75,8.25T103.5-324v62.5q0,10-1,21t-2.5,21l1,.5a81.284,81.284,0,0,1,16.5-17.5q8.5-6.5,22.5-12t35-5.5q44,0,70.5,29.25T272-134.5q0,33-9.5,59T235-31.5Q217-13.5,190.75-4T131,5.5q-25.5,0-44.75-4T56-8.5Q45.5-14,40.5-21t-5-20ZM103.5-52a36.53,36.53,0,0,0,9.5,5,62.4,62.4,0,0,0,11.75,3.25A90.724,90.724,0,0,0,141-42.5q28.5,0,44.75-19.25T202-126.5q0-41-14.75-58.75T150.5-203a51.039,51.039,0,0,0-20.25,3.75A71.506,71.506,0,0,0,115.5-191a79.3,79.3,0,0,0-12,11.5Zm240-147-23-5q-10-2.5-14.25-7T302-224q0-9,4.25-13.75t14.25-7.75a188.506,188.506,0,0,1,24-5,177.477,177.477,0,0,1,26-2q19,0,26.5,7.5t7.5,25v14l1,.5a100.847,100.847,0,0,1,12-20.75A78.336,78.336,0,0,1,433.25-242a71.373,71.373,0,0,1,18.5-10,60.951,60.951,0,0,1,20.75-3.5q13,0,20,7t7,20a73.559,73.559,0,0,1-2.25,19.25,45.6,45.6,0,0,1-6,13.75,27.712,27.712,0,0,1-8.25,8.25,17.136,17.136,0,0,1-9,2.75,18.213,18.213,0,0,1-6.25-1q-2.75-1-5.25-2t-5.25-2a19.88,19.88,0,0,0-6.75-1A49.473,49.473,0,0,0,430-186q-10,4.5-18.5,15.5V-48l24,6.5q11,3,15,7.5t4,13A19.565,19.565,0,0,1,448-6q-6.5,6-18,6H327.5q-11.5,0-18-6A19.565,19.565,0,0,1,303-21q0-8.5,4-12.75t15-7.75L343.5-48Zm198-110.5-20-4.5q-10-2.5-14.25-7.25T503-334.5q0-9,4.25-13.75T521.5-356a220.156,220.156,0,0,1,22.75-4.75A162.7,162.7,0,0,1,570.5-363q22.5,0,30.75,8.25T609.5-324v62.5q0,10-1,21t-2.5,21l1,.5a81.283,81.283,0,0,1,16.5-17.5q8.5-6.5,22.5-12t35-5.5q43.5,0,67,24.25T771.5-158V-48l19,6Q801-38.5,805-34t4,13a19.565,19.565,0,0,1-6.5,15q-6.5,6-18,6h-93q-11.5,0-18-6A19.565,19.565,0,0,1,667-21q0-8.5,4-13t14.5-8l18-6v-94q0-33.5-12-47.25T656.5-203a51.039,51.039,0,0,0-20.25,3.75A71.507,71.507,0,0,0,621.5-191a79.294,79.294,0,0,0-12,11.5V-48l18,6Q638-38.5,642-34t4,13a19.565,19.565,0,0,1-6.5,15q-6.5,6-18,6h-93q-11.5,0-18-6A19.565,19.565,0,0,1,504-21q0-8.5,3.75-13T521-41.5L541.5-48Zm316.5,0L838-314q-10-2.5-14.25-7.25T819.5-334.5q0-9,4.25-13.75T838-356a220.156,220.156,0,0,1,22.75-4.75A162.7,162.7,0,0,1,887-363q22.5,0,30.75,8.25T926-324V-48l19,6q10.5,3.5,14.5,8t4,13A19.565,19.565,0,0,1,957-6q-6.5,6-18,6H845q-11.5,0-18-6a19.565,19.565,0,0,1-6.5-15q0-8.5,3.75-13t13.25-7.5L858-48Zm156,0L994-314q-10-2.5-14.25-7.25T975.5-334.5q0-9,4.25-13.75T994-356a220.156,220.156,0,0,1,22.75-4.75A162.7,162.7,0,0,1,1043-363q22.5,0,30.75,8.25T1082-324v185l69-64.5-9-5q-8-4.5-11-10a25.676,25.676,0,0,1-3-12.5,16.753,16.753,0,0,1,5.5-13q5.5-5,15.5-5h86.5q10.5,0,16,5a16.753,16.753,0,0,1,5.5,13q0,9-5,14.75t-16.5,10.75l-13,5.5L1153-139.5l27.5,35.5a277.62,277.62,0,0,0,17.75,21.5Q1207-73,1215.5-65.25a186.741,186.741,0,0,0,17.25,14A185.745,185.745,0,0,0,1250.5-40q7,4,9.25,7.75A16.679,16.679,0,0,1,1262-23.5Q1262-13,1251.5-5t-31,8a87.032,87.032,0,0,1-23-3,82.293,82.293,0,0,1-21.25-9.25A104.884,104.884,0,0,1,1156-25.75a189.357,189.357,0,0,1-20-24.75l-54-77V-48l8.5,4q11.5,5.5,14.75,10t3.25,13a18.949,18.949,0,0,1-7,15q-7,6-18.5,6h-82q-11.5,0-18-6a19.565,19.565,0,0,1-6.5-15q0-8.5,3.75-13t13.25-7.5L1014-48ZM1297-38q0-19,12.75-31.75T1341.5-82.5q19,0,31.25,12.25T1385-39q0,19-12.75,31.75T1340.5,5.5q-19,0-31.25-12.25T1297-38Z" transform="translate(3 363)" fill="#2e2e2e"/>
</svg>
