<svg id="iconfinder_social-linkedin_216394" xmlns="http://www.w3.org/2000/svg" width="31.544" height="31.432" viewBox="0 0 31.544 31.432">
  <g id="Group_2" data-name="Group 2" transform="translate(0.112 8.98)">
    <path id="Path_2" data-name="Path 2" d="M11.735,31.451H5V9h6.735Zm24.7,0H29.7V19.458c0-3.125-1.114-4.681-3.321-4.681a3.318,3.318,0,0,0-3.415,2.616V31.451H16.226s.09-20.206,0-22.451h5.316l.411,4.49h.139a7.5,7.5,0,0,1,6.614-3.767A6.972,6.972,0,0,1,34.29,11.97c1.43,1.61,2.142,3.77,2.142,6.8Z" transform="translate(-5 -9)" fill="#fff"/>
  </g>
  <g id="Group_3" data-name="Group 3">
    <ellipse id="Ellipse_1" data-name="Ellipse 1" cx="3.48" cy="3.368" rx="3.48" ry="3.368" fill="#fff"/>
  </g>
</svg>
